<svg xmlns="http://www.w3.org/2000/svg" viewBox="0 0 140 65"><defs><style>.cls-1{fill:none;}.cls-2{fill:#fff;}</style></defs><title>D_SR_logo</title><g id="Layer_2" data-name="Layer 2"><g id="Layer_1-2" data-name="Layer 1"><rect class="cls-1" width="140" height="65"/><path class="cls-2" d="M100.6,45.28H109V50.2H100.6Zm-9.22-.61a3.08,3.08,0,1,0,3.07,3.07,3.08,3.08,0,0,0-3.07-3.07Zm34.07-15H100.6v4.92h24.85Zm-34.07-.61a3.08,3.08,0,1,0,3.07,3.07,3.07,3.07,0,0,0-3.07-3.07ZM125.45,14.9H100.6v4.92h24.85Zm-34.07-.61a3.08,3.08,0,1,0,3.07,3.07,3.07,3.07,0,0,0-3.07-3.07ZM80.92,56.6V8.38a2.46,2.46,0,0,1,2.46-2.46H131.6a2.46,2.46,0,0,1,2.46,2.46v27.8H139V8.38A7.39,7.39,0,0,0,131.6,1H83.38A7.39,7.39,0,0,0,76,8.38V56.6A7.39,7.39,0,0,0,83.38,64H111.8V59.06H83.38a2.46,2.46,0,0,1-2.46-2.46Zm54.6,7.4-4.9-4.9a11.12,11.12,0,1,1,3.56-3.4L139,60.52ZM125,55.74a6.15,6.15,0,1,0-6.15-6.15A6.16,6.16,0,0,0,125,55.74Z"/><path class="cls-2" d="M35.49,11.29l-.17,1.78v2.38c0,2-1.26,3-3.82,3H27.34a1.12,1.12,0,0,0-1.25,1.28V22L24.4,20.83V19.29a2.28,2.28,0,0,1,2.53-2.36h2.4a3.63,3.63,0,0,1-.51-1.84,3.93,3.93,0,0,1,4.23-4.19A8.19,8.19,0,0,1,35.49,11.29Zm-1.79,1.9-.14-1a2.82,2.82,0,0,0-.89-.12c-1.44,0-2.16.89-2.16,2.69,0,1.44.5,2.16,1.47,2.16,1.22,0,1.84-.77,1.84-2.3A10.66,10.66,0,0,0,33.7,13.19Z"/><path class="cls-2" d="M41.55,18.47H40.22a2.36,2.36,0,0,1-2.54-2.55V10.09L37.39,7.9l2-.46v8.08c0,.94.41,1.41,1.24,1.41h.92Z"/><path class="cls-2" d="M47.37,18.47h-6.3V16.93h6.3Z"/><path class="cls-2" d="M53.19,18.47h-6.3V16.93h6.3Z"/><path class="cls-2" d="M68.27,18.47H52.71V16.93h2.55V10.25L55,8.14,57.13,8l-.19,2.26v5a8.06,8.06,0,0,1,2.21-2.55,5.31,5.31,0,0,1,3.4-1.46,4.88,4.88,0,0,1,3,.84,2.7,2.7,0,0,1,1.16,2.3v2.62h1.61Zm-3.34-1.54V14.58c0-1.3-.92-1.95-2.75-1.95a5.1,5.1,0,0,0-3.29,1.74A7.41,7.41,0,0,0,57,16.93ZM63.39,8.49a1,1,0,0,1-2.07,0,1,1,0,1,1,2.07,0Z"/><path class="cls-2" d="M73,16a2.34,2.34,0,0,1-2.54,2.49H67.8V16.93H70c.84,0,1.25-.45,1.25-1.36V13.88L71,11.69l2-.45ZM72,8.49a1,1,0,0,1-2.08,0,1,1,0,1,1,2.08,0Z"/><path class="cls-2" d="M29.81,35.52H28a2.62,2.62,0,0,1-1.7-.53,2.58,2.58,0,0,1-1.68.53H17a2.92,2.92,0,0,1-2.35-1,4.16,4.16,0,0,1-.87-2.75,5,5,0,0,1,.66-2.49h1.53a3.87,3.87,0,0,0-.81,2.13c0,1.72.69,2.6,2,2.6h7.05c.84,0,1.25-.46,1.25-1.41V30.83l-.32-2.09,2-.46v4.29c0,1,.41,1.41,1.25,1.41h1.4Zm-9.64-7.23a1,1,0,0,1-1,1,1,1,0,0,1-1.06-1,1.08,1.08,0,0,1,1.06-1A1,1,0,0,1,20.17,28.29Zm1.37-2.63a1.06,1.06,0,0,1-1.06,1,1,1,0,0,1-1-1.05,1,1,0,0,1,1-1A1,1,0,0,1,21.54,25.66Zm1.37,2.63a1,1,0,0,1-1,1,1,1,0,0,1-1.06-1,1.08,1.08,0,0,1,1.06-1A1,1,0,0,1,22.91,28.29Z"/><path class="cls-2" d="M35.63,35.52h-6.3V34h6.3Z"/><path class="cls-2" d="M41.45,35.52h-6.3V34h6.3Z"/><path class="cls-2" d="M47.27,35.52H41V34h6.3Z"/><path class="cls-2" d="M57.47,35.52H46.79V34h7.39a14.33,14.33,0,0,0-1.71-2.9c-.94-1.28-1.78-1.91-2.48-1.91-.52,0-.77.32-.77,1a3.63,3.63,0,0,0,.24,1.14l-1.78.21c.19-2.24,1.35-3.6,2.86-3.6,1.16,0,2.34.76,3.52,2.26A14.35,14.35,0,0,1,56.19,34h1.28Z"/><path class="cls-2" d="M63.65,35.52H62.36A2.6,2.6,0,0,1,60.69,35a2.66,2.66,0,0,1-1.65.51H57V34h1.6c.84,0,1.25-.45,1.25-1.35V31l-.35-2.22,2-.46v4.35c0,.9.41,1.35,1.25,1.35h.86Zm-2,2.76a1,1,0,0,1-1,1,1,1,0,0,1-1-1,1,1,0,1,1,2.07,0Z"/><path class="cls-2" d="M68.92,33a2.36,2.36,0,0,1-2.55,2.55h-3.2V34H66c.84,0,1.25-.46,1.25-1.41V27.13l-.29-2.26,2-.48Z"/><path class="cls-2" d="M73,24.46l-.19,2.28v8.78h-1.7V26.75l-.25-2.12Z"/><path class="cls-2" d="M18.36,52.57h-1.8A2.35,2.35,0,0,1,14,50V46.49H12.42c-1.42,0-2.14.91-2.14,2.74,0,1.41.53,2.13,1.61,2.14h1.42V52.5a3.76,3.76,0,0,1-.94,2.57,3.68,3.68,0,0,1-2.53,1.28H7.17a4.6,4.6,0,0,1-3.7-1.47,5.76,5.76,0,0,1-1.13-3.83V48H4V51c0,2.67,1.19,4.25,3.39,4.25h2a2.36,2.36,0,0,0,1.58-1,2.59,2.59,0,0,0,.55-1.45,3,3,0,0,1-2.16-.86,3.2,3.2,0,0,1-.89-2.41,4.18,4.18,0,0,1,1.11-3,3.86,3.86,0,0,1,2.91-1.16h3.22l0,4.3c0,.94.41,1.4,1.24,1.4h1.38ZM7.85,59a1,1,0,0,1-2.09,0,1,1,0,0,1,2.09,0Zm2.72,0A1,1,0,0,1,8.5,59a1,1,0,1,1,2.07,0Z"/><path class="cls-2" d="M24.25,52.57H18V51h6.3Z"/><path class="cls-2" d="M30.07,52.57h-6.3V51h6.3Z"/><path class="cls-2" d="M35.89,52.57h-6.3V51h6.3Z"/><path class="cls-2" d="M46.55,52.57H45.32A2.51,2.51,0,0,1,43.69,52a3.85,3.85,0,0,1-3,1.49,2.41,2.41,0,0,1-2.19-1.27,2.61,2.61,0,0,1-1.28.31H35.4V51h1.32A1,1,0,0,0,37.9,49.9C38,47.45,39.58,46,42.18,46a8.21,8.21,0,0,1,2.49.4l-.21,1.78v1.54c0,.9.41,1.35,1.25,1.35h.84Zm-3.78-1.21V48.22l-.14-1a2.76,2.76,0,0,0-.82-.12c-1.42,0-2.14.89-2.14,2.69,0,1.44.61,2.3,1.44,2.3A2.28,2.28,0,0,0,42.77,51.36Z"/><path class="cls-2" d="M52.64,52.57H51.5A2.62,2.62,0,0,1,49.8,52a2.46,2.46,0,0,1-1.63.53H46.08V51h1.65c.82,0,1.23-.46,1.23-1.4V44.3L48.64,42l2-.46v8.08c0,.94.41,1.4,1.24,1.4h.73Z"/><path class="cls-2" d="M64.16,52.57H60.09a4.58,4.58,0,0,1-1.78-.44,3.86,3.86,0,0,1-1.18.06c-.5,0-.74.12-.76.38H52.14V51h4a2.94,2.94,0,0,0,.65-.07c-.4-.34-1.34-1.23-2.85-2.67a2.77,2.77,0,0,1,1.29-2.19,5.44,5.44,0,0,1,6.26,0,2.71,2.71,0,0,1,1.25,2.17L59.85,51a3.14,3.14,0,0,0,.68.07h3.63ZM60.88,48a1.37,1.37,0,0,0-.67-.9,3.51,3.51,0,0,0-1.87-.47,3.46,3.46,0,0,0-1.85.47,1.47,1.47,0,0,0-.7.9c.57.55,1.4,1.36,2.55,2.42Z"/><path class="cls-2" d="M68.92,50a2.36,2.36,0,0,1-2.55,2.55h-3.2V51H66c.84,0,1.25-.46,1.25-1.4V44.18l-.29-2.26,2-.48Z"/><path class="cls-2" d="M73,41.51l-.19,2.28v8.78h-1.7V43.81l-.25-2.13Z"/></g></g></svg>